<svg xmlns="http://www.w3.org/2000/svg" viewBox="0 0 51 51" fill="none"><path d="M49.8846 14.688C49.8797 14.8165 49.8698 14.945 49.8599 15.0735C49.7364 16.66 49.2718 18.0834 48.7133 19.398C47.5765 22.0323 45.9653 24.2613 44.2306 26.3124C40.7165 30.3997 36.5304 33.7062 32.0625 36.4986C27.5649 39.2416 22.7313 41.5003 17.5072 42.81C16.4397 43.067 15.3573 43.2943 14.2551 43.4624V39.039C14.2551 38.9549 14.2502 38.8759 14.2403 38.7968C14.1563 38.011 13.6522 37.3487 12.9553 37.0423C12.6884 36.9236 12.3869 36.8594 12.0756 36.8594H2.29958C1.24685 36.8594 0.372058 36.1131 0.169422 35.1246C0.134825 34.9813 0.119995 34.8281 0.119995 34.6749V16.5315C0.119995 15.3255 1.09364 14.3519 2.29958 14.3519H12.0756C13.2815 14.3519 14.2551 13.3733 14.2551 12.1723V2.39137C14.2551 1.19038 15.2337 0.211792 16.4397 0.211792H34.5831C35.789 0.211792 36.7627 1.19038 36.7627 2.39137V12.1723C36.7627 13.3733 37.7412 14.3519 38.9422 14.3519H48.7232C49.1531 14.3519 49.5485 14.4754 49.8846 14.688Z" fill="#4753BF"></path><path d="M17.2205 39.0394C17.2205 38.8403 17.2092 38.649 17.1859 38.4552C16.9828 36.6429 15.8209 35.0633 14.1489 34.3284C13.5133 34.0462 12.7927 33.8944 12.0755 33.8944H3.08588V17.3178H12.0755C14.9124 17.3178 17.2205 15.0097 17.2205 12.1728V3.17767H33.7972V12.1728C33.7972 15.0097 36.1053 17.3178 38.9422 17.3178H46.3454C46.2406 17.6118 46.1205 17.9173 45.9841 18.239C45.1276 20.2239 43.8865 22.1282 41.9664 24.3982C38.9521 27.9038 35.1934 31.0457 30.4908 33.9844C25.9413 36.759 21.5866 38.6767 17.2205 39.8228V39.0394Z" fill="white"></path><path d="M50.9028 19.2355V34.6754C50.9028 35.8813 49.9291 36.8599 48.7232 36.8599H38.9423C37.7413 36.8599 36.7627 37.8336 36.7627 39.0395V48.8155C36.7627 50.0214 35.789 51 34.5831 51H16.4397C15.2338 51 14.2552 50.0214 14.2552 48.8155V45.4547C15.4166 45.2916 16.6473 45.0544 17.9867 44.7282C22.9883 43.4777 27.9307 41.3377 33.1103 38.1746C38.2454 34.967 42.3723 31.5074 45.738 27.5881C47.9868 24.934 49.4646 22.6457 50.5321 20.1745C50.6705 19.8533 50.794 19.5414 50.9028 19.2355Z" fill="#506CD7"></path><path d="M49.8846 14.688C49.8797 14.8165 49.8698 14.945 49.8599 15.0735C49.7363 16.66 49.2718 18.0834 48.7133 19.398C47.5765 22.0323 45.9653 24.2613 44.2305 26.3124C40.7165 30.3997 36.5304 33.7062 32.0625 36.4986C27.5649 39.2416 22.7313 41.5003 17.5072 42.81C16.4397 43.067 15.3573 43.2943 14.2551 43.4624C13.6027 43.5612 12.9454 43.6403 12.2782 43.6848C11.3095 43.7639 10.321 43.7787 9.31278 43.7194C7.88444 43.6304 6.40667 43.408 4.92891 42.805C3.46597 42.2317 1.96843 41.1493 1.05903 39.6024C0.846512 39.2268 0.668598 38.8363 0.530212 38.4311C1.06893 38.693 1.67189 38.8363 2.29957 38.8363H6.14967C7.09366 39.1971 8.25512 39.3701 9.47094 39.3652C10.3902 39.3602 11.3293 39.2861 12.2782 39.1526C12.9306 39.0637 13.583 38.9401 14.2403 38.7968C14.9322 38.6535 15.6192 38.4755 16.3062 38.2778C18.5945 37.6254 20.8581 36.7655 23.0525 35.7424C25.2519 34.7342 27.3969 33.5727 29.4677 32.2926C31.5435 31.0175 33.5402 29.6188 35.4332 28.1065C37.331 26.604 39.1103 24.9681 40.7215 23.2135C42.3327 21.4689 43.766 19.571 44.7594 17.5891C45.3179 16.5018 45.6885 15.3651 45.7775 14.3519C45.8516 13.6105 45.7726 12.9334 45.5156 12.3749C45.4909 12.3206 45.4661 12.2711 45.4365 12.2168C45.0609 11.5594 44.4233 10.9713 43.4941 10.5809C42.5897 10.1756 41.4875 9.95317 40.3459 9.84939C39.817 9.8049 39.2833 9.78513 38.7396 9.78513V6.71099C39.308 6.65662 39.8813 6.62202 40.4645 6.61708C41.8533 6.60225 43.2965 6.74064 44.7643 7.23982C46.2174 7.71429 47.7495 8.67805 48.733 10.1805C49.1976 10.8972 49.509 11.6929 49.6918 12.4935C49.8549 13.2349 49.9143 13.9812 49.8846 14.688Z" fill="#0B1030"></path></svg>